<svg width="14" height="15" viewBox="0 0 14 15" fill="none" xmlns="http://www.w3.org/2000/svg">
<g clip-path="url(#clip0_1_522)">
<path d="M6.99998 9.96666C8.61081 9.96666 9.91665 8.66083 9.91665 7.05C9.91665 5.43917 8.61081 4.13333 6.99998 4.13333C5.38915 4.13333 4.08331 5.43917 4.08331 7.05C4.08331 8.66083 5.38915 9.96666 6.99998 9.96666Z" stroke="#8E92A4" stroke-width="1.16667" stroke-linecap="round" stroke-linejoin="round"/>
<path d="M6.99998 0.633331V1.8M6.99998 12.3V13.4667M2.46165 2.51166L3.28998 3.34M10.71 10.76L11.5383 11.5883M0.583313 7.05H1.74998M12.25 7.05H13.4166M2.46165 11.5883L3.28998 10.76M10.71 3.34L11.5383 2.51166" stroke="#8E92A4" stroke-width="1.16667" stroke-linecap="round" stroke-linejoin="round"/>
</g>
<defs>
<clipPath id="clip0_1_522">
<rect width="14" height="14" fill="white" transform="translate(0 0.0499878)"/>
</clipPath>
</defs>
</svg>
