<svg width="14" height="15" viewBox="0 0 14 15" fill="none" xmlns="http://www.w3.org/2000/svg">
<path d="M9.91665 12.3V11.1333C9.91665 10.5145 9.67081 9.92099 9.23323 9.48341C8.79564 9.04582 8.20215 8.79999 7.58331 8.79999H2.91665C2.29781 8.79999 1.70432 9.04582 1.26673 9.48341C0.829146 9.92099 0.583313 10.5145 0.583313 11.1333V12.3" stroke="#353536" stroke-width="1.16667" stroke-linecap="round" stroke-linejoin="round"/>
<path d="M5.25002 6.46665C6.53868 6.46665 7.58335 5.42199 7.58335 4.13332C7.58335 2.84466 6.53868 1.79999 5.25002 1.79999C3.96136 1.79999 2.91669 2.84466 2.91669 4.13332C2.91669 5.42199 3.96136 6.46665 5.25002 6.46665Z" stroke="#353536" stroke-width="1.16667" stroke-linecap="round" stroke-linejoin="round"/>
<path d="M13.4167 12.3V11.1333C13.4163 10.6163 13.2442 10.1141 12.9275 9.70551C12.6107 9.29691 12.1673 9.00507 11.6667 8.87582" stroke="#353536" stroke-width="1.16667" stroke-linecap="round" stroke-linejoin="round"/>
<path d="M9.33331 1.87582C9.83522 2.00433 10.2801 2.29623 10.5978 2.7055C10.9155 3.11478 11.0879 3.61814 11.0879 4.13624C11.0879 4.65434 10.9155 5.1577 10.5978 5.56698C10.2801 5.97625 9.83522 6.26815 9.33331 6.39666" stroke="#353536" stroke-width="1.16667" stroke-linecap="round" stroke-linejoin="round"/>
</svg>
