<svg width="14" height="15" viewBox="0 0 14 15" fill="none" xmlns="http://www.w3.org/2000/svg">
<path d="M12.8334 7.05H9.33335L8.16669 8.8H5.83335L4.66669 7.05H1.16669" stroke="#353536" stroke-width="1.16667" stroke-linecap="round" stroke-linejoin="round"/>
<path d="M3.17919 3.03083L1.16669 7.05V10.55C1.16669 10.8594 1.2896 11.1562 1.5084 11.375C1.72719 11.5937 2.02393 11.7167 2.33335 11.7167H11.6667C11.9761 11.7167 12.2729 11.5937 12.4916 11.375C12.7104 11.1562 12.8334 10.8594 12.8334 10.55V7.05L10.8209 3.03083C10.7243 2.83646 10.5754 2.67288 10.3909 2.55849C10.2064 2.44411 9.99374 2.38345 9.77669 2.38333H4.22335C4.0063 2.38345 3.79359 2.44411 3.60913 2.55849C3.42467 2.67288 3.27577 2.83646 3.17919 3.03083Z" stroke="#353536" stroke-width="1.16667" stroke-linecap="round" stroke-linejoin="round"/>
</svg>
