<svg width="12" height="14" viewBox="0 0 12 14" fill="none" xmlns="http://www.w3.org/2000/svg">
<path d="M0.75 3.54998H11.25M10.0833 3.54998V11.7166C10.0833 12.0261 9.96042 12.3228 9.74162 12.5416C9.52283 12.7604 9.22609 12.8833 8.91667 12.8833H3.08333C2.77391 12.8833 2.47717 12.7604 2.25838 12.5416C2.03958 12.3228 1.91667 12.0261 1.91667 11.7166V3.54998M3.66667 3.54998V2.38331C3.66667 2.07389 3.78958 1.77715 4.00838 1.55835C4.22717 1.33956 4.52391 1.21664 4.83333 1.21664H7.16667C7.47609 1.21664 7.77283 1.33956 7.99162 1.55835C8.21042 1.77715 8.33333 2.07389 8.33333 2.38331V3.54998" stroke="#353536" stroke-width="1.16667" stroke-linecap="round" stroke-linejoin="round"/>
</svg>
